# xmcd
#
# Track frame offsets:
#	150
#	9752
#	21766
#	33728
#	45559
#	55862
#	64204
#	76460
#	86919
#	99739
#	110169
#	121988
#	133236
#	146945
#	158929
#	168178
#	179419
#	189471
#	199492
#	209706
#	219704
#	229232
#	237300
#	245693
#	258198
#	267543
#	282952
#	299884
#	310996
#	320819
#	331769
#	343042
#	352970
#	363392
#	380148
#
# Disc length: 5181 seconds
#
# Revision: 1
# Processed by: cddbd v1.5.2PL0 Copyright (c) Steve Scherf et al.
# Submitted via: audiograbber 1.83.01
#
DISCID=40143b23
DTITLE=Charlie Phillips - Sugartime
DYEAR=2011
DGENRE=Country
TTITLE0=I'm Trapped
TTITLE1=The Bridge I Can't Burn
TTITLE2=Souvenirs Of Sorrow
TTITLE3=Be Careful, Go Easy, Walk Slow
TTITLE4=Sugartime
TTITLE5=Be My Bride
TTITLE6=Too Many Tears
TTITLE7=Faker
TTITLE8=One Faded Rose
TTITLE9=No More Sugartime
TTITLE10=Welcome To The Wedding
TTITLE11=Guess I'll Never Learn
TTITLE12=Now That It's Over
TTITLE13=No One To Love
TTITLE14='till Sunday
TTITLE15=Cancel The Call
TTITLE16=You're Moving Away
TTITLE17=Later Tonight
TTITLE18=This Is The House
TTITLE19=Please Help Me Believe
TTITLE20=The Streets Of Loneliness
TTITLE21=Big Ball's In Cowtown
TTITLE22=Rainbow In The Valley
TTITLE23=Twenty Fools Ago
TTITLE24=Blue Blue Bottle
TTITLE25=Who Are You
TTITLE26=I Walk Alone Tomorrow
TTITLE27=Hurry Up Sundown
TTITLE28=I'm Giving Her Love
TTITLE29=I'll Take What's Left Of You
TTITLE30=Listen (Could It Be Her)
TTITLE31=Phoney Angel
TTITLE32=You're My Lsd
TTITLE33=R&r Medley: Whole Lotta Shakin'/johnny B. Goode/the Twist/rock Around 
TTITLE33=T
TTITLE34=Sugartime [demo][demo Version]
EXTD=
EXTT0=
EXTT1=
EXTT2=
EXTT3=
EXTT4=
EXTT5=
EXTT6=
EXTT7=
EXTT8=
EXTT9=
EXTT10=
EXTT11=
EXTT12=
EXTT13=
EXTT14=
EXTT15=
EXTT16=
EXTT17=
EXTT18=
EXTT19=
EXTT20=
EXTT21=
EXTT22=
EXTT23=
EXTT24=
EXTT25=
EXTT26=
EXTT27=
EXTT28=
EXTT29=
EXTT30=
EXTT31=
EXTT32=
EXTT33=
EXTT34=
PLAYORDER=
